<?xml version="1.0" encoding="UTF-8" standalone="no"?>
<!-- Generator: Adobe Illustrator 19.0.0, SVG Export Plug-In . SVG Version: 6.00 Build 0)  -->

<svg
   xmlns:dc="http://purl.org/dc/elements/1.1/"
   xmlns:cc="http://creativecommons.org/ns#"
   xmlns:rdf="http://www.w3.org/1999/02/22-rdf-syntax-ns#"
   xmlns:svg="http://www.w3.org/2000/svg"
   xmlns="http://www.w3.org/2000/svg"
   xmlns:sodipodi="http://sodipodi.sourceforge.net/DTD/sodipodi-0.dtd"
   xmlns:inkscape="http://www.inkscape.org/namespaces/inkscape"
   version="1.1"
   id="Capa_1"
   x="0px"
   y="0px"
   viewBox="0 0 512 512"
   style="enable-background:new 0 0 512 512;"
   xml:space="preserve"
   sodipodi:docname="sort.svg"
   inkscape:version="0.92.4 (5da689c313, 2019-01-14)"><metadata
   id="metadata45"><rdf:RDF><cc:Work
       rdf:about=""><dc:format>image/svg+xml</dc:format><dc:type
         rdf:resource="http://purl.org/dc/dcmitype/StillImage" /></cc:Work></rdf:RDF></metadata><defs
   id="defs43" /><sodipodi:namedview
   pagecolor="#ffffff"
   bordercolor="#666666"
   borderopacity="1"
   objecttolerance="10"
   gridtolerance="10"
   guidetolerance="10"
   inkscape:pageopacity="0"
   inkscape:pageshadow="2"
   inkscape:window-width="1366"
   inkscape:window-height="704"
   id="namedview41"
   showgrid="false"
   inkscape:zoom="0.4609375"
   inkscape:cx="219.11864"
   inkscape:cy="256"
   inkscape:window-x="0"
   inkscape:window-y="27"
   inkscape:window-maximized="1"
   inkscape:current-layer="Capa_1" />
<path
   style="fill:#ff0000"
   d="M268.008,125.774L177.955,5.703C174.953,2.099,170.451,0,165.947,0  c-4.504,0-9.005,2.099-12.008,5.703c-61.954,82.848-42.868,57.405-90.053,120.07c-7.504,9.905-0.298,24.014,12.008,24.014h45.026  v287.168c0,8.404,6.603,15.009,15.009,15.009h60.035c8.406,0,15.009-6.605,15.009-15.009V149.788H256  C268.306,149.788,275.512,135.678,268.008,125.774z"
   id="path2" />
<path
   style="fill:#0000ff"
   d="M436.106,361.912h-45.026V74.744c0-8.406-6.603-15.009-15.009-15.009h-60.035  c-8.406,0-15.009,6.603-15.009,15.009v287.168H256c-12.306,0-19.512,14.107-12.008,24.014l38.424,51.03l51.629,69.04  c3.003,4.202,7.504,6.004,12.008,6.004c4.504,0,9.005-1.801,12.008-6.004l90.053-120.07  C455.618,376.019,448.412,361.912,436.106,361.912z"
   id="path4" />
<path
   style="fill:#0000d4"
   d="M448.114,385.925l-90.053,120.07c-3.003,4.202-7.504,6.004-12.008,6.004V59.734h30.018  c8.406,0,15.009,6.603,15.009,15.009v287.168h45.026C448.412,361.912,455.618,376.019,448.114,385.925z"
   id="path6" />
<path
   style="fill:#c83737"
   d="M256,149.788h-45.026v287.168c0,8.404-6.603,15.009-15.009,15.009h-30.018V0  c4.504,0,9.005,2.099,12.008,5.703l90.053,120.07C275.512,135.678,268.306,149.788,256,149.788z"
   id="path8" />
<g
   id="g10">
</g>
<g
   id="g12">
</g>
<g
   id="g14">
</g>
<g
   id="g16">
</g>
<g
   id="g18">
</g>
<g
   id="g20">
</g>
<g
   id="g22">
</g>
<g
   id="g24">
</g>
<g
   id="g26">
</g>
<g
   id="g28">
</g>
<g
   id="g30">
</g>
<g
   id="g32">
</g>
<g
   id="g34">
</g>
<g
   id="g36">
</g>
<g
   id="g38">
</g>
</svg>