<?xml version="1.0" encoding="UTF-8" standalone="no"?>
<!-- Generator: Adobe Illustrator 19.0.0, SVG Export Plug-In . SVG Version: 6.00 Build 0)  -->

<svg
   xmlns:dc="http://purl.org/dc/elements/1.1/"
   xmlns:cc="http://creativecommons.org/ns#"
   xmlns:rdf="http://www.w3.org/1999/02/22-rdf-syntax-ns#"
   xmlns:svg="http://www.w3.org/2000/svg"
   xmlns="http://www.w3.org/2000/svg"
   xmlns:sodipodi="http://sodipodi.sourceforge.net/DTD/sodipodi-0.dtd"
   xmlns:inkscape="http://www.inkscape.org/namespaces/inkscape"
   version="1.1"
   id="Capa_1"
   x="0px"
   y="0px"
   viewBox="0 0 25 48"
   xml:space="preserve"
   sodipodi:docname="sourcePointMarker.svg"
   width="25"
   height="48"
   inkscape:version="0.92.4 (5da689c313, 2019-01-14)"><metadata
   id="metadata49"><rdf:RDF><cc:Work
       rdf:about=""><dc:format>image/svg+xml</dc:format><dc:type
         rdf:resource="http://purl.org/dc/dcmitype/StillImage" /><dc:title></dc:title></cc:Work></rdf:RDF></metadata><defs
   id="defs47" /><sodipodi:namedview
   pagecolor="#ffffff"
   bordercolor="#666666"
   borderopacity="1"
   objecttolerance="10"
   gridtolerance="10"
   guidetolerance="10"
   inkscape:pageopacity="0"
   inkscape:pageshadow="2"
   inkscape:window-width="1366"
   inkscape:window-height="704"
   id="namedview45"
   showgrid="false"
   inkscape:zoom="5.2149125"
   inkscape:cx="14.306154"
   inkscape:cy="38.348573"
   inkscape:window-x="0"
   inkscape:window-y="27"
   inkscape:window-maximized="1"
   inkscape:current-layer="Capa_1"
   showguides="false" />
<path
   style="fill:#000000;stroke-width:0.07683194"
   d="M 22.887508,8.9782131 C 20.61509,3.5249912 16.664282,0.26933394 12.319195,0.26933394 c -4.3451346,0 -8.2958808,3.25565726 -10.5683134,8.70878276 -2.26401301,5.4330613 -2.45191611,12.0746763 -0.5024115,17.7663793 0.016192,0.04717 0.03408,0.09298 0.053665,0.13713 l 8.5529155,19.214993 c 0.5468704,1.228621 1.4679584,1.962168 2.4640524,1.962168 v 0 c 0.996033,0 1.91726,-0.733547 2.464128,-1.962068 l 8.552838,-19.215008 c 0.01974,-0.04415 0.03763,-0.08999 0.05366,-0.137098 1.949503,-5.691803 1.7616,-12.333417 -0.502413,-17.766382 z"
   id="path2"
   inkscape:connector-curvature="0" />
<path
   style="fill:#000000;stroke-width:0.07683194"
   d="m 12.319195,0.26933394 c -4.3451346,0 -8.2958808,3.25565726 -10.5683134,8.70878276 -2.26401301,5.4330613 -2.45191611,12.0746763 -0.5024115,17.7663793 0.016192,0.04717 0.03408,0.09298 0.053665,0.13713 l 8.5529155,19.214993 c 0.5468704,1.228621 1.4679584,1.962168 2.4640524,1.962168 v 0 z"
   id="path4"
   inkscape:connector-curvature="0" />
<ellipse
   style="fill:#a8d3d8;stroke-width:0.07683194"
   cx="12.319193"
   cy="18.357443"
   rx="7.3255901"
   ry="10.783427"
   id="ellipse6" />
<path
   style="fill:#f0f0f0;stroke-width:0.07683194"
   d="m 12.319195,7.5737426 c -4.0458621,0 -7.3257084,4.8281374 -7.3257084,10.7838984 0,5.955765 3.2798463,10.783799 7.3257084,10.783799 z"
   id="path8"
   inkscape:connector-curvature="0" />


<g
   id="g14"
   transform="translate(0,-464)">
</g>
<g
   id="g16"
   transform="translate(0,-464)">
</g>
<g
   id="g18"
   transform="translate(0,-464)">
</g>
<g
   id="g20"
   transform="translate(0,-464)">
</g>
<g
   id="g22"
   transform="translate(0,-464)">
</g>
<g
   id="g24"
   transform="translate(0,-464)">
</g>
<g
   id="g26"
   transform="translate(0,-464)">
</g>
<g
   id="g28"
   transform="translate(0,-464)">
</g>
<g
   id="g30"
   transform="translate(0,-464)">
</g>
<g
   id="g32"
   transform="translate(0,-464)">
</g>
<g
   id="g34"
   transform="translate(0,-464)">
</g>
<g
   id="g36"
   transform="translate(0,-464)">
</g>
<g
   id="g38"
   transform="translate(0,-464)">
</g>
<g
   id="g40"
   transform="translate(0,-464)">
</g>
<g
   id="g42"
   transform="translate(0,-464)">
</g>
<text
   xml:space="preserve"
   style="font-style:normal;font-variant:normal;font-weight:normal;font-stretch:normal;font-size:22.9744606px;line-height:1.25;font-family:aakar;-inkscape-font-specification:aakar;letter-spacing:0px;word-spacing:0px;fill:#000000;fill-opacity:1;stroke:none;stroke-width:0.57436156"
   x="6.6073561"
   y="28.241179"
   id="text128"
   transform="scale(1.1942936,0.83731505)"><tspan
     sodipodi:role="line"
     id="tspan126"
     x="6.6073561"
     y="28.241179"
     style="stroke-width:0.57436156">I</tspan></text>
</svg>