<?xml version="1.0" encoding="UTF-8" standalone="no"?>
<!-- Generator: Adobe Illustrator 19.0.0, SVG Export Plug-In . SVG Version: 6.00 Build 0)  -->

<svg
   xmlns:dc="http://purl.org/dc/elements/1.1/"
   xmlns:cc="http://creativecommons.org/ns#"
   xmlns:rdf="http://www.w3.org/1999/02/22-rdf-syntax-ns#"
   xmlns:svg="http://www.w3.org/2000/svg"
   xmlns="http://www.w3.org/2000/svg"
   xmlns:sodipodi="http://sodipodi.sourceforge.net/DTD/sodipodi-0.dtd"
   xmlns:inkscape="http://www.inkscape.org/namespaces/inkscape"
   version="1.1"
   id="Capa_1"
   x="0px"
   y="0px"
   viewBox="0 0 48 48"
   xml:space="preserve"
   sodipodi:docname="sourcePoint.svg"
   width="48"
   height="48"
   inkscape:version="0.92.4 (5da689c313, 2019-01-14)"><metadata
   id="metadata49"><rdf:RDF><cc:Work
       rdf:about=""><dc:format>image/svg+xml</dc:format><dc:type
         rdf:resource="http://purl.org/dc/dcmitype/StillImage" /><dc:title></dc:title></cc:Work></rdf:RDF></metadata><defs
   id="defs47" /><sodipodi:namedview
   pagecolor="#ffffff"
   bordercolor="#666666"
   borderopacity="1"
   objecttolerance="10"
   gridtolerance="10"
   guidetolerance="10"
   inkscape:pageopacity="0"
   inkscape:pageshadow="2"
   inkscape:window-width="1366"
   inkscape:window-height="704"
   id="namedview45"
   showgrid="false"
   inkscape:zoom="5.2149125"
   inkscape:cx="-21.552549"
   inkscape:cy="38.348573"
   inkscape:window-x="0"
   inkscape:window-y="27"
   inkscape:window-maximized="1"
   inkscape:current-layer="Capa_1"
   showguides="false" />
<path
   style="fill:#000000;stroke-width:0.10665827"
   d="M 44.191007,8.9782131 C 39.811817,3.5249912 32.198192,0.26933394 23.82475,0.26933394 c -8.373533,0 -15.9870391,3.25565726 -20.366257,8.70878276 -4.36299242,5.4330613 -4.7251016,12.0746763 -0.9682,17.7663793 0.031204,0.04717 0.065676,0.09298 0.1034181,0.13713 L 19.076084,46.096619 c 1.053877,1.228621 2.828911,1.962168 4.748489,1.962168 v 0 c 1.919461,0 3.694763,-0.733547 4.748635,-1.962068 L 45.055431,26.881711 c 0.03804,-0.04415 0.07252,-0.08999 0.103409,-0.137098 3.756898,-5.691803 3.394789,-12.333417 -0.968203,-17.766382 z"
   id="path2"
   inkscape:connector-curvature="0" />
<path
   style="fill:#000000;stroke-width:0.10665827"
   d="m 23.82475,0.26933394 c -8.373533,0 -15.9870391,3.25565726 -20.366257,8.70878276 -4.36299242,5.4330613 -4.7251016,12.0746763 -0.9682,17.7663793 0.031204,0.04717 0.065676,0.09298 0.1034181,0.13713 L 19.076084,46.096619 c 1.053877,1.228621 2.828911,1.962168 4.748489,1.962168 v 0 z"
   id="path4"
   inkscape:connector-curvature="0" />
<ellipse
   style="fill:#a8d3d8;stroke-width:0.10665827"
   cx="23.824747"
   cy="18.357443"
   rx="14.117187"
   ry="10.783427"
   id="ellipse6" />
<path
   style="fill:#f0f0f0;stroke-width:0.10665827"
   d="m 23.82475,7.5737426 c -7.796804,0 -14.1174143,4.8281374 -14.1174143,10.7838984 0,5.955765 6.3206103,10.783799 14.1174143,10.783799 z"
   id="path8"
   inkscape:connector-curvature="0" />


<g
   id="g14"
   transform="translate(0,-464)">
</g>
<g
   id="g16"
   transform="translate(0,-464)">
</g>
<g
   id="g18"
   transform="translate(0,-464)">
</g>
<g
   id="g20"
   transform="translate(0,-464)">
</g>
<g
   id="g22"
   transform="translate(0,-464)">
</g>
<g
   id="g24"
   transform="translate(0,-464)">
</g>
<g
   id="g26"
   transform="translate(0,-464)">
</g>
<g
   id="g28"
   transform="translate(0,-464)">
</g>
<g
   id="g30"
   transform="translate(0,-464)">
</g>
<g
   id="g32"
   transform="translate(0,-464)">
</g>
<g
   id="g34"
   transform="translate(0,-464)">
</g>
<g
   id="g36"
   transform="translate(0,-464)">
</g>
<g
   id="g38"
   transform="translate(0,-464)">
</g>
<g
   id="g40"
   transform="translate(0,-464)">
</g>
<g
   id="g42"
   transform="translate(0,-464)">
</g>
<text
   xml:space="preserve"
   style="font-style:normal;font-variant:normal;font-weight:normal;font-stretch:normal;font-size:31.89319992px;line-height:1.25;font-family:aakar;-inkscape-font-specification:aakar;letter-spacing:0px;word-spacing:0px;fill:#000000;fill-opacity:1;stroke:none;stroke-width:0.79733008"
   x="9.2232294"
   y="39.204472"
   id="text128"
   transform="scale(1.6579212,0.60316499)"><tspan
     sodipodi:role="line"
     id="tspan126"
     x="9.2232294"
     y="39.204472"
     style="stroke-width:0.79733008">I</tspan></text>

</svg>