<?xml version="1.0" encoding="UTF-8" standalone="no"?>
<!-- Generator: Adobe Illustrator 19.0.0, SVG Export Plug-In . SVG Version: 6.00 Build 0)  -->

<svg
   xmlns:dc="http://purl.org/dc/elements/1.1/"
   xmlns:cc="http://creativecommons.org/ns#"
   xmlns:rdf="http://www.w3.org/1999/02/22-rdf-syntax-ns#"
   xmlns:svg="http://www.w3.org/2000/svg"
   xmlns="http://www.w3.org/2000/svg"
   xmlns:sodipodi="http://sodipodi.sourceforge.net/DTD/sodipodi-0.dtd"
   xmlns:inkscape="http://www.inkscape.org/namespaces/inkscape"
   version="1.1"
   id="Capa_1"
   x="0px"
   y="0px"
   viewBox="0 0 25 48"
   xml:space="preserve"
   sodipodi:docname="targetPointMarker.svg"
   width="25"
   height="48"
   inkscape:version="0.92.4 (5da689c313, 2019-01-14)"><metadata
   id="metadata49"><rdf:RDF><cc:Work
       rdf:about=""><dc:format>image/svg+xml</dc:format><dc:type
         rdf:resource="http://purl.org/dc/dcmitype/StillImage" /><dc:title /></cc:Work></rdf:RDF></metadata><defs
   id="defs47" /><sodipodi:namedview
   pagecolor="#ffffff"
   bordercolor="#666666"
   borderopacity="1"
   objecttolerance="10"
   gridtolerance="10"
   guidetolerance="10"
   inkscape:pageopacity="0"
   inkscape:pageshadow="2"
   inkscape:window-width="1366"
   inkscape:window-height="704"
   id="namedview45"
   showgrid="false"
   inkscape:zoom="5.2149125"
   inkscape:cx="-10.860117"
   inkscape:cy="31.831624"
   inkscape:window-x="0"
   inkscape:window-y="27"
   inkscape:window-maximized="1"
   inkscape:current-layer="Capa_1" />
<path
   style="fill:#c2132c;stroke-width:0.07636885"
   d="M 22.9024,9.0274428 C 20.651055,3.5892903 16.736911,0.3426321 12.432156,0.3426321 c -4.3048154,0 -8.2188989,3.2466582 -10.4702428,8.6847176 -2.24301044,5.4180473 -2.42916583,12.0413043 -0.4977505,17.7172783 0.015977,0.04701 0.033773,0.0927 0.053259,0.136736 L 9.9909608,46.043255 C 10.532759,47.268479 11.445302,48 12.432156,48 v 0 c 0.986792,0 1.89946,-0.731521 2.441259,-1.956651 l 8.473477,-19.161892 c 0.01949,-0.04403 0.03727,-0.08973 0.05326,-0.136736 C 25.331565,21.068654 25.145408,14.445397 22.9024,9.0274428 Z"
   id="path2"
   inkscape:connector-curvature="0" />
<path
   style="fill:#ff3f5c;stroke-width:0.07636885"
   d="m 12.432156,0.3426321 c -4.3048154,0 -8.2188989,3.2466582 -10.4702428,8.6847176 -2.24301044,5.4180473 -2.42916583,12.0413043 -0.4977505,17.7172783 0.015977,0.04701 0.033773,0.0927 0.053259,0.136736 L 9.9909608,46.043255 C 10.532759,47.268479 11.445302,48 12.432156,48 v 0 z"
   id="path4"
   inkscape:connector-curvature="0" />
<ellipse
   style="fill:#a8d3d8;stroke-width:0.07636885"
   cx="12.432158"
   cy="18.380758"
   rx="7.2576094"
   ry="10.753624"
   id="ellipse6" />
<path
   style="fill:#f0f0f0;stroke-width:0.07636885"
   d="m 12.432156,7.626856 c -4.0083204,0 -7.2577343,4.81479 -7.2577343,10.75409 0,5.9393 3.2494139,10.753997 7.2577343,10.753997 z"
   id="path8"
   inkscape:connector-curvature="0" />
<path
   style="fill:#aa0000;stroke-width:0.07636885"
   d="m 15.116651,15.409342 c -0.366985,-0.545268 -0.962105,-0.545268 -1.329152,0 l -1.113297,1.653766 -0.742365,1.102822 c -0.02293,0.03407 -0.05025,0.05101 -0.0834,0.04793 -0.03239,-0.0022 -0.05934,-0.02225 -0.08001,-0.05929 L 11.42168,17.532699 11.136025,17.020476 C 10.804818,16.426713 10.212392,16.344057 9.8126376,16.835988 9.4129459,17.32792 9.3573059,18.208092 9.6884504,18.801948 l 0.6324636,1.134189 c 0.356584,0.639465 0.88134,1.02845 1.439743,1.067171 0.03089,0.0021 0.06165,0.0033 0.09248,0.0033 0.525884,0 1.0346,-0.311355 1.407975,-0.866025 l 1.8556,-2.756588 c 0.366983,-0.545359 0.366983,-1.429348 -6.3e-5,-1.974615 z"
   id="path10"
   inkscape:connector-curvature="0" />
<path
   style="fill:#ff0000;stroke-width:0.07636885"
   d="M 12.432156,17.422773 11.9319,18.16593 C 11.90897,18.2 11.88165,18.21694 11.8485,18.21386 11.81611,18.21166 11.78916,18.19161 11.76849,18.15457 L 11.421743,17.532699 11.136088,17.020476 C 10.804881,16.426713 10.212454,16.344057 9.8127,16.835988 9.4130083,17.32792 9.3573687,18.208092 9.6885135,18.801948 l 0.6324635,1.134189 c 0.356583,0.639465 0.88134,1.02845 1.439742,1.067171 0.03089,0.0021 0.06166,0.0033 0.09248,0.0033 0.197183,0 0.391985,-0.04375 0.57814,-0.127801 z"
   id="path12"
   inkscape:connector-curvature="0" />
<g
   id="g14"
   transform="translate(0,-464)">
</g>
<g
   id="g16"
   transform="translate(0,-464)">
</g>
<g
   id="g18"
   transform="translate(0,-464)">
</g>
<g
   id="g20"
   transform="translate(0,-464)">
</g>
<g
   id="g22"
   transform="translate(0,-464)">
</g>
<g
   id="g24"
   transform="translate(0,-464)">
</g>
<g
   id="g26"
   transform="translate(0,-464)">
</g>
<g
   id="g28"
   transform="translate(0,-464)">
</g>
<g
   id="g30"
   transform="translate(0,-464)">
</g>
<g
   id="g32"
   transform="translate(0,-464)">
</g>
<g
   id="g34"
   transform="translate(0,-464)">
</g>
<g
   id="g36"
   transform="translate(0,-464)">
</g>
<g
   id="g38"
   transform="translate(0,-464)">
</g>
<g
   id="g40"
   transform="translate(0,-464)">
</g>
<g
   id="g42"
   transform="translate(0,-464)">
</g>
</svg>