<?xml version="1.0" encoding="UTF-8" standalone="no"?>
<!-- Generator: Adobe Illustrator 19.0.0, SVG Export Plug-In . SVG Version: 6.00 Build 0)  -->

<svg
   xmlns:dc="http://purl.org/dc/elements/1.1/"
   xmlns:cc="http://creativecommons.org/ns#"
   xmlns:rdf="http://www.w3.org/1999/02/22-rdf-syntax-ns#"
   xmlns:svg="http://www.w3.org/2000/svg"
   xmlns="http://www.w3.org/2000/svg"
   xmlns:sodipodi="http://sodipodi.sourceforge.net/DTD/sodipodi-0.dtd"
   xmlns:inkscape="http://www.inkscape.org/namespaces/inkscape"
   version="1.1"
   id="Capa_1"
   x="0px"
   y="0px"
   viewBox="0 0 48 48"
   xml:space="preserve"
   sodipodi:docname="point.svg"
   width="48"
   height="48"
   inkscape:version="0.92.4 (5da689c313, 2019-01-14)"><metadata
   id="metadata49"><rdf:RDF><cc:Work
       rdf:about=""><dc:format>image/svg+xml</dc:format><dc:type
         rdf:resource="http://purl.org/dc/dcmitype/StillImage" /><dc:title></dc:title></cc:Work></rdf:RDF></metadata><defs
   id="defs47" /><sodipodi:namedview
   pagecolor="#ffffff"
   bordercolor="#666666"
   borderopacity="1"
   objecttolerance="10"
   gridtolerance="10"
   guidetolerance="10"
   inkscape:pageopacity="0"
   inkscape:pageshadow="2"
   inkscape:window-width="1366"
   inkscape:window-height="704"
   id="namedview45"
   showgrid="false"
   inkscape:zoom="10.429825"
   inkscape:cx="21.298277"
   inkscape:cy="30.572248"
   inkscape:window-x="0"
   inkscape:window-y="27"
   inkscape:window-maximized="1"
   inkscape:current-layer="Capa_1" />
<path
   style="fill:#c2132c;stroke-width:0.10729983"
   d="M 44.368529,8.664587 C 39.971785,3.1676025 32.327638,-0.11418163 23.920626,-0.11418163 c -8.407102,0 -16.0511295,3.28178413 -20.4479035,8.77867203 -4.38048318,5.4766616 -4.744044,12.1715776 -0.9720815,17.9089556 0.031329,0.04755 0.065939,0.09373 0.1038319,0.138231 L 19.152922,46.080873 c 1.0581,1.23848 2.84025,1.977914 4.767525,1.977914 v 0 c 1.927156,0 3.709574,-0.739434 4.767675,-1.977814 L 45.23642,26.711764 c 0.03819,-0.0445 0.0728,-0.09071 0.103832,-0.1382 3.771963,-5.73748 3.408402,-12.432394 -0.972081,-17.9089589 z"
   id="path2"
   inkscape:connector-curvature="0" />
<path
   style="fill:#ff3f5c;stroke-width:0.10729983"
   d="m 23.920626,-0.11418163 c -8.407102,0 -16.0511295,3.28178413 -20.4479035,8.77867203 -4.38048318,5.4766616 -4.744044,12.1715776 -0.9720815,17.9089556 0.031329,0.04755 0.065939,0.09373 0.1038319,0.138231 L 19.152922,46.080873 c 1.0581,1.23848 2.84025,1.977914 4.767525,1.977914 v 0 z"
   id="path4"
   inkscape:connector-curvature="0" />
<ellipse
   style="fill:#a8d3d8;stroke-width:0.10729983"
   cx="23.920624"
   cy="18.119087"
   rx="14.173781"
   ry="10.869966"
   id="ellipse6" />
<path
   style="fill:#f0f0f0;stroke-width:0.10729983"
   d="m 23.920626,7.2488459 c -7.82806,0 -14.1740097,4.8668831 -14.1740097,10.8704401 0,6.00356 6.3459497,10.87034 14.1740097,10.87034 z"
   id="path8"
   inkscape:connector-curvature="0" />
<path
   style="fill:#3b4a51;stroke-width:0.10729983"
   d="m 29.163332,15.11553 c -0.716709,-0.55116 -1.87894,-0.55116 -2.595768,0 l -2.174234,1.671663 -1.449798,1.114748 c -0.04476,0.03444 -0.09816,0.05156 -0.162909,0.04842 -0.06325,-0.0025 -0.115766,-0.02264 -0.156344,-0.05995 l -0.677175,-0.628598 -0.557858,-0.517769 c -0.646861,-0.600186 -1.803841,-0.68374 -2.584549,-0.186471 -0.780559,0.497253 -0.889225,1.386947 -0.242573,1.987232 l 1.235182,1.146462 c 0.69639,0.646382 1.721193,1.039577 2.811726,1.078716 0.06027,0.0025 0.120541,0.0033 0.180513,0.0033 1.02704,0 2.020515,-0.314722 2.749695,-0.875389 l 3.623913,-2.786408 c 0.716708,-0.55126 0.716708,-1.444812 -1.2e-4,-1.995981 z"
   id="path10"
   inkscape:connector-curvature="0" />
<path
   style="fill:#537983;stroke-width:0.10729983"
   d="m 23.920626,17.15074 -0.976975,0.751201 c -0.04475,0.03444 -0.09816,0.05156 -0.162908,0.04842 -0.06325,-0.0025 -0.115767,-0.02264 -0.156345,-0.05995 l -0.677175,-0.628598 -0.557887,-0.517769 c -0.646831,-0.600186 -1.803781,-0.68374 -2.58449,-0.186471 -0.780589,0.497253 -0.889255,1.386947 -0.242573,1.987232 l 1.235182,1.146462 c 0.69639,0.646382 1.721193,1.039577 2.811756,1.078716 0.06027,0.0025 0.120541,0.0033 0.180513,0.0033 0.385073,0 0.765521,-0.04423 1.129052,-0.129175 z"
   id="path12"
   inkscape:connector-curvature="0" />
<g
   id="g14"
   transform="translate(0,-464)">
</g>
<g
   id="g16"
   transform="translate(0,-464)">
</g>
<g
   id="g18"
   transform="translate(0,-464)">
</g>
<g
   id="g20"
   transform="translate(0,-464)">
</g>
<g
   id="g22"
   transform="translate(0,-464)">
</g>
<g
   id="g24"
   transform="translate(0,-464)">
</g>
<g
   id="g26"
   transform="translate(0,-464)">
</g>
<g
   id="g28"
   transform="translate(0,-464)">
</g>
<g
   id="g30"
   transform="translate(0,-464)">
</g>
<g
   id="g32"
   transform="translate(0,-464)">
</g>
<g
   id="g34"
   transform="translate(0,-464)">
</g>
<g
   id="g36"
   transform="translate(0,-464)">
</g>
<g
   id="g38"
   transform="translate(0,-464)">
</g>
<g
   id="g40"
   transform="translate(0,-464)">
</g>
<g
   id="g42"
   transform="translate(0,-464)">
</g>
</svg>