<?xml version="1.0" encoding="UTF-8" standalone="no"?>
<!-- Generator: Adobe Illustrator 19.0.0, SVG Export Plug-In . SVG Version: 6.00 Build 0)  -->

<svg
   xmlns:dc="http://purl.org/dc/elements/1.1/"
   xmlns:cc="http://creativecommons.org/ns#"
   xmlns:rdf="http://www.w3.org/1999/02/22-rdf-syntax-ns#"
   xmlns:svg="http://www.w3.org/2000/svg"
   xmlns="http://www.w3.org/2000/svg"
   xmlns:sodipodi="http://sodipodi.sourceforge.net/DTD/sodipodi-0.dtd"
   xmlns:inkscape="http://www.inkscape.org/namespaces/inkscape"
   version="1.1"
   id="Capa_1"
   x="0px"
   y="0px"
   viewBox="0 0 25 48"
   xml:space="preserve"
   sodipodi:docname="targetPointMarker.svg"
   width="25"
   height="48"
   inkscape:version="0.92.4 (5da689c313, 2019-01-14)"><metadata
   id="metadata49"><rdf:RDF><cc:Work
       rdf:about=""><dc:format>image/svg+xml</dc:format><dc:type
         rdf:resource="http://purl.org/dc/dcmitype/StillImage" /><dc:title></dc:title></cc:Work></rdf:RDF></metadata><defs
   id="defs47" /><sodipodi:namedview
   pagecolor="#ffffff"
   bordercolor="#666666"
   borderopacity="1"
   objecttolerance="10"
   gridtolerance="10"
   guidetolerance="10"
   inkscape:pageopacity="0"
   inkscape:pageshadow="2"
   inkscape:window-width="1366"
   inkscape:window-height="704"
   id="namedview45"
   showgrid="false"
   inkscape:zoom="7.375"
   inkscape:cx="0.52426433"
   inkscape:cy="33.732555"
   inkscape:window-x="0"
   inkscape:window-y="27"
   inkscape:window-maximized="1"
   inkscape:current-layer="Capa_1" />
<path
   style="fill:#c2132c;stroke-width:0.07802845"
   d="m 23.420094,8.664587 c -2.325086,-5.4969845 -6.367465,-8.77876863 -10.813261,-8.77876863 -4.4458441,0 -8.488159,3.28178413 -10.8132613,8.77867203 -2.31648729,5.4766616 -2.50874554,12.1715776 -0.5140562,17.9089556 0.016567,0.04755 0.03487,0.09373 0.054908,0.138231 l 8.7511525,19.369196 c 0.559544,1.23848 1.501981,1.977914 2.521162,1.977914 v 0 c 1.019119,0 1.961697,-0.739434 2.521242,-1.977814 l 8.751072,-19.369209 c 0.0202,-0.0445 0.0385,-0.09071 0.05491,-0.1382 1.994689,-5.73748 1.802431,-12.432394 -0.514056,-17.9089589 z"
   id="path2"
   inkscape:connector-curvature="0" />
<path
   style="fill:#ff3f5c;stroke-width:0.07802845"
   d="m 12.606833,-0.11418163 c -4.4458441,0 -8.488159,3.28178413 -10.8132613,8.77867203 -2.31648729,5.4766616 -2.50874554,12.1715776 -0.5140562,17.9089556 0.016567,0.04755 0.03487,0.09373 0.054908,0.138231 l 8.7511525,19.369196 c 0.559544,1.23848 1.501981,1.977914 2.521162,1.977914 v 0 z"
   id="path4"
   inkscape:connector-curvature="0" />
<ellipse
   style="fill:#a8d3d8;stroke-width:0.07802845"
   cx="12.606832"
   cy="18.119087"
   rx="7.4953799"
   ry="10.869966"
   id="ellipse6" />
<path
   style="fill:#f0f0f0;stroke-width:0.07802845"
   d="m 12.606833,7.2488459 c -4.1396351,0 -7.4955005,4.8668831 -7.4955005,10.8704401 0,6.00356 3.3558654,10.87034 7.4955005,10.87034 z"
   id="path8"
   inkscape:connector-curvature="0" />


<g
   id="g14"
   transform="translate(0,-464)">
</g>
<g
   id="g16"
   transform="translate(0,-464)">
</g>
<g
   id="g18"
   transform="translate(0,-464)">
</g>
<g
   id="g20"
   transform="translate(0,-464)">
</g>
<g
   id="g22"
   transform="translate(0,-464)">
</g>
<g
   id="g24"
   transform="translate(0,-464)">
</g>
<g
   id="g26"
   transform="translate(0,-464)">
</g>
<g
   id="g28"
   transform="translate(0,-464)">
</g>
<g
   id="g30"
   transform="translate(0,-464)">
</g>
<g
   id="g32"
   transform="translate(0,-464)">
</g>
<g
   id="g34"
   transform="translate(0,-464)">
</g>
<g
   id="g36"
   transform="translate(0,-464)">
</g>
<g
   id="g38"
   transform="translate(0,-464)">
</g>
<g
   id="g40"
   transform="translate(0,-464)">
</g>
<g
   id="g42"
   transform="translate(0,-464)">
</g>
<text
   xml:space="preserve"
   style="font-style:normal;font-variant:normal;font-weight:normal;font-stretch:normal;font-size:17.7131691px;line-height:1.25;font-family:aakar;-inkscape-font-specification:aakar;letter-spacing:0px;word-spacing:0px;fill:#000000;fill-opacity:1;stroke:none;stroke-width:0.44282922"
   x="12.062752"
   y="20.013027"
   id="text321"
   transform="scale(0.77702099,1.2869665)"><tspan
     sodipodi:role="line"
     id="tspan319"
     x="12.062752"
     y="20.013027"
     style="stroke-width:0.44282922">F</tspan></text>
</svg>